# xmcd
#
# Track frame offsets: 
#        150
#        20457
#        38243
#        58393
#        75844
#        96177
#        114991
#        134596
#        154939
#        170722
#
# Disc length: 2542 seconds
#
# Revision: 0
# Processed by: cddbd v1.5.2PL0 Copyright (c) Steve Scherf et al.
# Submitted via: ExactAudioCopy v0.95b4
#
DISCID=8009ec0a
DTITLE=ร็อคออนซอน - เมียห่าว
DYEAR=2007
DGENRE=Country
TTITLE0=ถึกเต๊ะลิ้นปี่
TTITLE1=เมียห่าว
TTITLE2=มักสาวเซเว่น
TTITLE3=สาวนาบาร์เบียร์
TTITLE4=รอยจูบที่เลือนราง
TTITLE5=งึดเจ้าใจดำ
TTITLE6=แขกทวงหนี้
TTITLE7=นักแสวงบุญ
TTITLE8=มักสาวเสื้อดำ
TTITLE9=ถึงชั่วก็ผัวเธอ
EXTD=
EXTT0=
EXTT1=
EXTT2=
EXTT3=
EXTT4=
EXTT5=
EXTT6=
EXTT7=
EXTT8=
EXTT9=
PLAYORDER=
